HIERARCHY
ROOT Hips
{
	OFFSET 0.000000 87.230942 0.000000
	CHANNELS 6 Xposition Yposition Zposition Xrotation Yrotation Zrotation
	JOINT Pelvis
	{
		OFFSET 0.000000 0.000000 0.000000
		CHANNELS 3 Xrotation Yrotation Zrotation
		JOINT LeftUpLeg
		{
			OFFSET 12.017000 -9.376404 -2.439400
			CHANNELS 3 Xrotation Yrotation Zrotation
			JOINT LeftLeg
			{
				OFFSET -0.007312 -32.846973 2.110600
				CHANNELS 3 Xrotation Yrotation Zrotation
				JOINT LeftFoot
				{
					OFFSET 0.007312 -32.065170 -0.570400
					CHANNELS 3 Xrotation Yrotation Zrotation
					JOINT LeftToeBase
					{
						OFFSET 0.728300 -11.045900 13.180700
						CHANNELS 3 Xrotation Yrotation Zrotation
						End Site
						{
							OFFSET 0.000000 17.212589 0.000000
						}
					}
				}
				JOINT LeftPantLeg
				{
					OFFSET 0.002788 -16.709013 -3.143600
					CHANNELS 3 Xrotation Yrotation Zrotation
					End Site
					{
						OFFSET -0.605125 24.528742 0.000000
					}
				}
			}
			JOINT Left_Butt
			{
				OFFSET -6.630234 1.326584 -3.183700
				CHANNELS 3 Xrotation Yrotation Zrotation
				End Site
				{
					OFFSET -0.498041 20.188049 0.000000
				}
			}
		}
		JOINT RightUpLeg
		{
			OFFSET -11.717000 -9.376404 -2.439400
			CHANNELS 3 Xrotation Yrotation Zrotation
			JOINT RightLeg
			{
				OFFSET -0.003241 -32.846912 2.110600
				CHANNELS 3 Xrotation Yrotation Zrotation
				JOINT RightFoot
				{
					OFFSET 0.003241 -32.065136 -0.570500
					CHANNELS 3 Xrotation Yrotation Zrotation
					JOINT RightToeBase
					{
						OFFSET -0.728300 -11.045901 13.180700
						CHANNELS 3 Xrotation Yrotation Zrotation
						End Site
						{
							OFFSET 0.000000 17.212593 0.000000
						}
					}
				}
				JOINT RightPantLeg
				{
					OFFSET 0.008142 -16.708982 -3.143700
					CHANNELS 3 Xrotation Yrotation Zrotation
					End Site
					{
						OFFSET 0.605088 24.528715 0.000000
					}
				}
			}
			JOINT Right_Butt
			{
				OFFSET 6.630732 1.326584 -3.183700
				CHANNELS 3 Xrotation Yrotation Zrotation
				End Site
				{
					OFFSET 0.498015 20.188240 0.000000
				}
			}
		}
	}
	JOINT Spine
	{
		OFFSET -0.062400 7.848404 3.918300
		CHANNELS 3 Xrotation Yrotation Zrotation
		JOINT Spine1
		{
			OFFSET -0.072800 11.422302 0.713400
			CHANNELS 3 Xrotation Yrotation Zrotation
			JOINT Spine2
			{
				OFFSET -0.083200 13.054001 -1.931600
				CHANNELS 3 Xrotation Yrotation Zrotation
				JOINT Neck
				{
					OFFSET -0.092200 14.121796 -5.138800
					CHANNELS 3 Xrotation Yrotation Zrotation
					JOINT Head
					{
						OFFSET 0.000200 10.447403 -0.842000
						CHANNELS 3 Xrotation Yrotation Zrotation
						JOINT Visor
						{
							OFFSET 0.457100 25.671204 16.550400
							CHANNELS 3 Xrotation Yrotation Zrotation
							End Site
							{
								OFFSET 0.000000 26.061493 0.000000
							}
						}
						JOINT HairMidA
						{
							OFFSET 0.459400 31.585403 8.437400
							CHANNELS 3 Xrotation Yrotation Zrotation
							End Site
							{
								OFFSET 0.000000 26.061493 0.000000
							}
						}
						JOINT HairMidB
						{
							OFFSET 0.464000 33.309204 -8.389700
							CHANNELS 3 Xrotation Yrotation Zrotation
							End Site
							{
								OFFSET 0.000000 26.061493 0.000000
							}
						}
						JOINT HairMidC
						{
							OFFSET 0.466600 27.991196 -17.375099
							CHANNELS 3 Xrotation Yrotation Zrotation
							End Site
							{
								OFFSET 0.000000 26.061493 0.000000
							}
						}
						JOINT HairMidD
						{
							OFFSET 0.467700 17.888092 -21.169500
							CHANNELS 3 Xrotation Yrotation Zrotation
							End Site
							{
								OFFSET 0.000000 26.061493 0.000000
							}
						}
						JOINT HairMidE
						{
							OFFSET 5.325700 3.514603 -14.369699
							CHANNELS 3 Xrotation Yrotation Zrotation
							End Site
							{
								OFFSET 0.000000 26.061493 0.000000
							}
						}
						JOINT HairMidF
						{
							OFFSET -4.394100 3.514603 -14.372400
							CHANNELS 3 Xrotation Yrotation Zrotation
							End Site
							{
								OFFSET 0.000000 26.061493 0.000000
							}
						}
						JOINT HairLeftA
						{
							OFFSET 15.319900 25.746506 2.623300
							CHANNELS 3 Xrotation Yrotation Zrotation
							End Site
							{
								OFFSET 0.000000 26.061493 0.000000
							}
						}
						JOINT HairLeftB
						{
							OFFSET 12.619500 29.289398 -8.731499
							CHANNELS 3 Xrotation Yrotation Zrotation
							End Site
							{
								OFFSET 0.000000 26.061493 0.000000
							}
						}
						JOINT HairLeftC
						{
							OFFSET 15.714800 15.959900 2.909800
							CHANNELS 3 Xrotation Yrotation Zrotation
							End Site
							{
								OFFSET 0.000000 26.061493 0.000000
							}
						}
						JOINT HairLeftD
						{
							OFFSET 16.101700 18.437408 -7.553200
							CHANNELS 3 Xrotation Yrotation Zrotation
							End Site
							{
								OFFSET 0.000000 26.061493 0.000000
							}
						}
						JOINT HairLeftE
						{
							OFFSET 9.731900 17.915009 -18.316799
							CHANNELS 3 Xrotation Yrotation Zrotation
							End Site
							{
								OFFSET 0.000000 26.061493 0.000000
							}
						}
						JOINT HairLeftF
						{
							OFFSET 11.204300 4.953598 -9.668100
							CHANNELS 3 Xrotation Yrotation Zrotation
							End Site
							{
								OFFSET 0.000000 26.061493 0.000000
							}
						}
						JOINT HairRightA
						{
							OFFSET -14.397900 25.746307 2.615100
							CHANNELS 3 Xrotation Yrotation Zrotation
							End Site
							{
								OFFSET 0.000000 26.061493 0.000000
							}
						}
						JOINT HairRightB
						{
							OFFSET -11.691200 29.289200 -8.738199
							CHANNELS 3 Xrotation Yrotation Zrotation
							End Site
							{
								OFFSET 0.000000 26.061493 0.000000
							}
						}
						JOINT HairRightC
						{
							OFFSET -14.792900 15.959702 2.901400
							CHANNELS 3 Xrotation Yrotation Zrotation
							End Site
							{
								OFFSET 0.000000 26.061493 0.000000
							}
						}
						JOINT HairRightD
						{
							OFFSET -15.174000 18.437195 -7.561900
							CHANNELS 3 Xrotation Yrotation Zrotation
							End Site
							{
								OFFSET 0.000000 26.061493 0.000000
							}
						}
						JOINT HairRightE
						{
							OFFSET -8.798200 17.914902 -18.322001
							CHANNELS 3 Xrotation Yrotation Zrotation
							End Site
							{
								OFFSET 0.000000 26.061493 0.000000
							}
						}
						JOINT HairRightF
						{
							OFFSET -10.275200 4.953506 -9.674099
							CHANNELS 3 Xrotation Yrotation Zrotation
							End Site
							{
								OFFSET 0.000000 26.061493 0.000000
							}
						}
					}
				}
				JOINT LeftShoulder
				{
					OFFSET 5.133500 7.341202 -1.867600
					CHANNELS 3 Xrotation Yrotation Zrotation
					JOINT LeftArm
					{
						OFFSET 8.072663 0.936867 -2.176600
						CHANNELS 3 Xrotation Yrotation Zrotation
						JOINT LeftForeArm
						{
							OFFSET 31.271999 0.000000 0.000000
							CHANNELS 3 Xrotation Yrotation Zrotation
							JOINT LeftHand
							{
								OFFSET 31.771030 0.000000 0.000000
								CHANNELS 3 Xrotation Yrotation Zrotation
								JOINT LeftHandThumb1
								{
									OFFSET 2.886520 -2.557846 4.416640
									CHANNELS 3 Xrotation Yrotation Zrotation
									JOINT LeftHandThumb2
									{
										OFFSET 2.371025 -1.368912 1.368911
										CHANNELS 3 Xrotation Yrotation Zrotation
										JOINT LeftHandThumb3
										{
											OFFSET 2.243378 -1.295212 1.295213
											CHANNELS 3 Xrotation Yrotation Zrotation
											End Site
											{
												OFFSET -0.332611 2.876945 0.020015
											}
										}
									}
								}
								JOINT LeftHandIndex1
								{
									OFFSET 8.568985 -0.641945 3.119977
									CHANNELS 3 Xrotation Yrotation Zrotation
									JOINT LeftHandIndex2
									{
										OFFSET 3.348503 0.000000 0.000000
										CHANNELS 3 Xrotation Yrotation Zrotation
										JOINT LeftHandIndex3
										{
											OFFSET 3.314552 0.000000 0.000000
											CHANNELS 3 Xrotation Yrotation Zrotation
											End Site
											{
												OFFSET -1.032898 3.075485 0.678796
											}
										}
									}
								}
								JOINT LeftHandMiddle1
								{
									OFFSET 8.124603 0.000000 0.000000
									CHANNELS 3 Xrotation Yrotation Zrotation
									JOINT LeftHandMiddle2
									{
										OFFSET 4.166275 0.000000 0.000000
										CHANNELS 3 Xrotation Yrotation Zrotation
										JOINT LeftHandMiddle3
										{
											OFFSET 3.018135 0.000000 0.000000
											CHANNELS 3 Xrotation Yrotation Zrotation
											End Site
											{
												OFFSET -1.032700 2.767982 0.617226
											}
										}
									}
								}
								JOINT LeftHandRing1
								{
									OFFSET 8.571686 -0.031357 -2.884048
									CHANNELS 3 Xrotation Yrotation Zrotation
									JOINT LeftHandRing2
									{
										OFFSET 3.671181 0.000000 0.000000
										CHANNELS 3 Xrotation Yrotation Zrotation
										JOINT LeftHandRing3
										{
											OFFSET 2.728851 0.000000 0.000000
											CHANNELS 3 Xrotation Yrotation Zrotation
											End Site
											{
												OFFSET -0.815796 2.539223 0.577389
											}
										}
									}
								}
								JOINT LeftHandPinky1
								{
									OFFSET 7.854515 -0.675232 -5.213020
									CHANNELS 3 Xrotation Yrotation Zrotation
									JOINT LeftHandPinky2
									{
										OFFSET 3.068596 0.000000 0.000000
										CHANNELS 3 Xrotation Yrotation Zrotation
										JOINT LeftHandPinky3
										{
											OFFSET 2.396042 0.000000 0.000000
											CHANNELS 3 Xrotation Yrotation Zrotation
											End Site
											{
												OFFSET -0.524597 2.267998 0.567429
											}
										}
									}
								}
							}
							JOINT LeftSleeve
							{
								OFFSET 19.684509 -0.200119 0.476146
								CHANNELS 3 Xrotation Yrotation Zrotation
								End Site
								{
									OFFSET -0.031017 25.731133 -0.002868
								}
							}
						}
					}
				}
				JOINT RightShoulder
				{
					OFFSET -4.395900 7.341202 -1.870200
					CHANNELS 3 Xrotation Yrotation Zrotation
					JOINT RightArm
					{
						OFFSET -8.071453 0.936867 -2.181100
						CHANNELS 3 Xrotation Yrotation Zrotation
						JOINT RightForeArm
						{
							OFFSET -31.272011 0.000000 0.000000
							CHANNELS 3 Xrotation Yrotation Zrotation
							JOINT RightHand
							{
								OFFSET -31.771019 0.000000 0.000000
								CHANNELS 3 Xrotation Yrotation Zrotation
								JOINT RightHandThumb1
								{
									OFFSET -2.886520 -2.557808 4.416626
									CHANNELS 3 Xrotation Yrotation Zrotation
									JOINT RightHandThumb2
									{
										OFFSET -2.371056 -1.368927 1.368928
										CHANNELS 3 Xrotation Yrotation Zrotation
										JOINT RightHandThumb3
										{
											OFFSET -2.243362 -1.295204 1.295206
											CHANNELS 3 Xrotation Yrotation Zrotation
											End Site
											{
												OFFSET 0.332642 2.876938 0.020047
											}
										}
									}
								}
								JOINT RightHandIndex1
								{
									OFFSET -8.568993 -0.641953 3.120017
									CHANNELS 3 Xrotation Yrotation Zrotation
									JOINT RightHandIndex2
									{
										OFFSET -3.348518 0.000000 0.000000
										CHANNELS 3 Xrotation Yrotation Zrotation
										JOINT RightHandIndex3
										{
											OFFSET -3.314552 0.000000 0.000000
											CHANNELS 3 Xrotation Yrotation Zrotation
											End Site
											{
												OFFSET 1.032898 3.075478 0.678804
											}
										}
									}
								}
								JOINT RightHandMiddle1
								{
									OFFSET -8.124588 0.000000 0.000000
									CHANNELS 3 Xrotation Yrotation Zrotation
									JOINT RightHandMiddle2
									{
										OFFSET -4.166275 0.000000 0.000000
										CHANNELS 3 Xrotation Yrotation Zrotation
										JOINT RightHandMiddle3
										{
											OFFSET -3.018097 0.000000 0.000000
											CHANNELS 3 Xrotation Yrotation Zrotation
											End Site
											{
												OFFSET 1.032700 2.767937 0.617197
											}
										}
									}
								}
								JOINT RightHandRing1
								{
									OFFSET -8.571747 -0.031349 -2.884061
									CHANNELS 3 Xrotation Yrotation Zrotation
									JOINT RightHandRing2
									{
										OFFSET -3.671204 0.000000 0.000000
										CHANNELS 3 Xrotation Yrotation Zrotation
										JOINT RightHandRing3
										{
											OFFSET -2.728874 0.000000 0.000000
											CHANNELS 3 Xrotation Yrotation Zrotation
											End Site
											{
												OFFSET 0.815804 2.539261 0.577413
											}
										}
									}
								}
								JOINT RightHandPinky1
								{
									OFFSET -7.854561 -0.675247 -5.212970
									CHANNELS 3 Xrotation Yrotation Zrotation
									JOINT RightHandPinky2
									{
										OFFSET -3.068550 0.000000 0.000000
										CHANNELS 3 Xrotation Yrotation Zrotation
										JOINT RightHandPinky3
										{
											OFFSET -2.395981 0.000000 0.000000
											CHANNELS 3 Xrotation Yrotation Zrotation
											End Site
											{
												OFFSET 0.524605 2.267952 0.567413
											}
										}
									}
								}
							}
							JOINT RightSleeve
							{
								OFFSET -19.684753 -0.200165 0.476065
								CHANNELS 3 Xrotation Yrotation Zrotation
								End Site
								{
									OFFSET 0.031342 25.731255 -0.002917
								}
							}
						}
					}
				}
				JOINT Hood
				{
					OFFSET 0.369700 14.447800 -5.317800
					CHANNELS 3 Xrotation Yrotation Zrotation
					JOINT Hood1
					{
						OFFSET 0.001700 -5.553802 -5.895100
						CHANNELS 3 Xrotation Yrotation Zrotation
						JOINT Hood2
						{
							OFFSET -0.000200 -8.380501 0.763600
							CHANNELS 3 Xrotation Yrotation Zrotation
							End Site
							{
								OFFSET 0.000000 8.415215 0.000000
							}
						}
					}
				}
				JOINT Left_Breast
				{
					OFFSET 5.682500 3.120102 3.188800
					CHANNELS 3 Xrotation Yrotation Zrotation
					End Site
					{
						OFFSET 0.000000 10.528564 0.000000
					}
				}
				JOINT Right_Breast
				{
					OFFSET -4.947600 3.120102 3.185900
					CHANNELS 3 Xrotation Yrotation Zrotation
					End Site
					{
						OFFSET 0.000000 10.528564 0.000000
					}
				}
				JOINT Whistle
				{
					OFFSET 0.368200 11.471298 0.095400
					CHANNELS 3 Xrotation Yrotation Zrotation
					JOINT Whistle1
					{
						OFFSET -0.002000 -6.349899 7.479800
						CHANNELS 3 Xrotation Yrotation Zrotation
						JOINT Whistle2
						{
							OFFSET -0.001300 -8.217598 4.717600
							CHANNELS 3 Xrotation Yrotation Zrotation
							End Site
							{
								OFFSET 0.000000 9.475479 0.000000
							}
						}
					}
				}
			}
		}
		JOINT Belly
		{
			OFFSET 0.212400 1.593002 3.163700
			CHANNELS 3 Xrotation Yrotation Zrotation
			End Site
			{
				OFFSET 0.000000 7.496635 0.000000
			}
		}
	}
	JOINT FitGrandmaFacialAnim_Joint
	{
		OFFSET 1.150000 -86.211197 -1.220100
		CHANNELS 3 Xrotation Yrotation Zrotation
		End Site
		{
			OFFSET 0.000000 31.666618 0.000000
		}
	}
}
MOTION
Frames: 4
Frame Time: 0.016667
3.179853 76.610008 -3.116996 163.487736 -84.806081 172.937207 0.000000 0.000000 0.000001 -7.449669 19.374689 12.459851 44.405423 8.912140 -6.844922 -24.246004 15.434156 -19.404127 0.000000 -0.000002 0.000000 0.000001 -0.000001 -0.000002 0.000000 -0.000000 0.000001 -43.405722 11.702718 -16.049486 50.488051 -3.463112 -8.615623 -13.215381 18.493302 14.839626 -0.000000 0.000001 -0.000000 -0.000000 0.000001 0.000001 -0.000003 0.000001 -0.000001 27.003911 -10.311139 9.103590 22.828266 -3.476727 1.160360 22.831255 -3.513605 1.117205 5.617726 -1.103830 -3.287027 -24.500414 16.764404 -15.915164 -0.000000 0.000000 0.000000 -0.000000 0.000000 0.000000 -0.000000 0.000000 0.000000 -0.000000 0.000000 0.000000 -0.000000 0.000000 0.000000 -0.000000 0.000000 0.000000 -0.000000 0.000000 0.000000 -0.000000 0.000000 0.000000 -0.000000 0.000000 0.000000 -0.000000 0.000000 0.000000 -0.000000 0.000000 0.000000 -0.000000 0.000000 0.000000 -0.000000 0.000000 0.000000 -0.000000 0.000000 0.000000 -0.000000 0.000000 0.000000 -0.000000 0.000000 0.000000 -0.000000 0.000000 0.000000 -0.000000 0.000000 0.000000 -0.000000 0.000000 0.000000 -0.574384 -9.850077 11.644918 7.953498 23.817338 -68.381498 0.000579 -83.763002 0.000549 -0.593567 -15.951287 -35.333337 -6.141226 -11.690801 -6.761692 9.914115 42.595512 3.409863 0.000002 0.000001 -0.000000 0.255312 3.378194 -45.814341 5.654069 5.847726 -88.067455 0.000004 0.000001 0.000003 -0.461473 3.841583 -39.722690 6.450738 5.820339 -95.892857 0.000004 -0.000000 0.000002 0.469721 4.966835 -39.799441 8.181092 5.368652 -113.503011 0.000003 -0.000001 -0.000000 -3.762442 9.063701 -45.253818 5.342511 5.828981 -85.005304 0.000000 0.000000 -0.000001 -0.000000 -0.000003 -0.000002 6.747079 21.058549 15.296851 -49.806843 49.425875 42.155887 -0.000013 110.780990 0.000016 -30.368640 3.752452 19.633082 -7.341094 13.749657 7.412351 9.855747 -44.489089 -3.903277 0.000001 -0.000000 -0.000002 -0.124377 -2.384768 45.108864 4.500592 -4.654576 88.071143 -0.000001 0.000000 -0.000000 -0.761628 -2.932896 39.031068 5.133882 -4.632750 95.881649 -0.000001 -0.000000 -0.000002 0.154762 -4.068822 39.122685 6.509748 -4.273605 113.462898 0.000005 -0.000001 -0.000003 -4.198873 -8.025536 44.637762 4.252894 -4.639605 85.014825 0.000001 0.000001 0.000000 -0.000001 -0.000001 -0.000000 0.000000 0.000001 -0.000000 0.000000 0.000001 -0.000000 0.000000 0.000001 -0.000000 0.000000 0.000001 -0.000000 0.000000 0.000001 -0.000000 0.000000 0.000001 -0.000000 0.000000 0.000001 0.000000 0.000000 0.000001 0.000000 0.000002 -0.000003 -0.000000 0.000000 0.000000 0.000001 
3.173922 76.608337 -3.236731 167.354893 -87.319078 176.883048 -0.000000 0.000000 -0.000000 -7.894055 19.078993 12.961877 44.734754 8.895072 -6.316432 -23.963425 13.293820 -19.606545 0.000000 0.000000 0.000000 0.000005 -0.000000 0.000000 0.000001 -0.000000 -0.000003 -41.997522 11.359001 -17.108664 51.640998 -3.471075 -8.596339 -14.286022 16.612746 15.126291 -0.000000 -0.000001 -0.000000 -0.000000 -0.000001 -0.000001 0.000002 0.000001 -0.000000 26.604721 -10.273271 9.009892 22.569684 -3.466836 1.087095 22.571349 -3.500718 1.047252 5.617277 -0.871027 -3.422215 -22.991142 17.514669 -15.694484 -0.000002 0.000000 0.000000 -0.000002 0.000000 0.000000 -0.000002 0.000000 0.000000 -0.000002 0.000000 0.000000 -0.000002 0.000000 0.000000 -0.000002 0.000000 0.000000 -0.000002 0.000000 0.000000 -0.000002 0.000000 0.000000 -0.000002 0.000000 0.000000 -0.000002 0.000000 0.000000 -0.000002 0.000000 0.000000 -0.000002 0.000000 0.000000 -0.000002 0.000000 0.000000 -0.000002 0.000000 0.000000 -0.000002 0.000000 0.000000 -0.000002 0.000000 0.000000 -0.000002 0.000000 0.000000 -0.000002 0.000000 0.000000 -0.000002 0.000000 0.000000 -0.552070 -9.621079 10.944555 4.435605 26.897731 -66.445446 -0.000312 -87.948876 -0.000333 -0.585597 -15.037157 -35.679556 -6.141222 -11.690800 -6.761692 9.914123 42.595505 3.409865 -0.000002 0.000001 -0.000000 0.255317 3.378194 -45.814344 5.654071 5.847726 -88.067455 0.000000 0.000000 0.000004 -0.461470 3.841585 -39.722690 6.450741 5.820342 -95.892857 0.000002 0.000000 0.000000 0.469721 4.966832 -39.799437 8.181095 5.368650 -113.503011 0.000000 -0.000002 -0.000002 -3.762443 9.063703 -45.253818 5.342511 5.828982 -85.005311 0.000000 0.000003 -0.000003 0.000001 -0.000000 -0.000002 6.677405 21.397939 15.512680 -47.870747 45.703982 40.482924 0.000037 111.430397 -0.000047 -31.320095 4.487719 19.907210 -7.341094 13.749657 7.412350 9.855744 -44.489093 -3.903287 -0.000000 0.000001 0.000003 -0.124381 -2.384770 45.108861 4.500593 -4.654569 88.071137 -0.000001 -0.000000 -0.000000 -0.761625 -2.932903 39.031065 5.133881 -4.632748 95.881649 0.000000 0.000001 -0.000003 0.154763 -4.068823 39.122688 6.509748 -4.273602 113.462891 0.000006 -0.000003 -0.000001 -4.198872 -8.025537 44.637766 4.252896 -4.639602 85.014825 -0.000003 -0.000001 0.000001 -0.000000 -0.000001 -0.000003 -0.000001 -0.000001 0.000002 -0.000001 -0.000001 0.000002 -0.000001 -0.000001 0.000002 -0.000001 -0.000001 0.000002 -0.000001 -0.000001 0.000002 -0.000001 -0.000001 0.000001 0.000001 -0.000001 -0.000001 0.000001 -0.000001 -0.000001 -0.000001 0.000000 0.000000 -0.000000 0.000000 -0.000000 
3.169531 76.633347 -3.345096 82.228866 -90.321028 91.827440 -0.000000 0.000000 -0.000000 -8.428903 18.722155 13.485676 45.004574 8.881361 -5.795195 -23.638265 10.981200 -19.747926 0.000000 -0.000003 0.000000 0.000002 -0.000000 -0.000000 0.000001 0.000000 0.000001 -40.414670 10.879701 -18.246772 52.656076 -3.491779 -8.519439 -15.319979 14.637345 15.404167 0.000000 -0.000000 0.000000 0.000001 0.000000 0.000000 0.000002 -0.000000 0.000001 26.104052 -10.275844 8.922996 22.258185 -3.473034 1.011024 22.258238 -3.504549 0.974827 5.582350 -0.609719 -3.490655 -21.431940 18.334345 -15.324472 -0.000001 0.000000 0.000000 -0.000001 0.000000 0.000000 -0.000001 0.000000 0.000000 -0.000001 0.000000 0.000000 -0.000001 0.000000 0.000000 -0.000001 0.000000 0.000000 -0.000001 0.000000 0.000000 -0.000001 0.000000 0.000000 -0.000001 0.000000 0.000000 -0.000001 0.000000 0.000000 -0.000001 0.000000 0.000000 -0.000001 0.000000 0.000000 -0.000001 0.000000 0.000000 -0.000001 0.000000 0.000000 -0.000001 0.000000 0.000000 -0.000001 0.000000 0.000000 -0.000001 0.000000 0.000000 -0.000001 0.000000 0.000000 -0.000001 0.000000 0.000000 -0.520529 -9.531913 10.234633 1.463546 28.835477 -64.955085 -0.034837 -92.579738 -0.034793 -0.628412 -14.115732 -35.772399 -6.141224 -11.690799 -6.761692 9.914109 42.595505 3.409864 0.000003 -0.000000 -0.000001 0.255310 3.378191 -45.814344 5.654070 5.847731 -88.067455 0.000001 -0.000003 -0.000002 -0.461472 3.841581 -39.722690 6.450736 5.820338 -95.892857 0.000001 0.000003 0.000001 0.469722 4.966833 -39.799437 8.181096 5.368655 -113.503004 -0.000001 0.000004 0.000001 -3.762445 9.063698 -45.253821 5.342515 5.828986 -85.005304 -0.000003 -0.000000 -0.000001 0.000002 -0.000001 -0.000003 6.665665 21.639405 15.541464 -46.863769 42.548356 39.774445 -0.000045 111.812697 0.000034 -31.896276 5.342532 20.119364 -7.341096 13.749660 7.412351 9.855738 -44.489089 -3.903276 -0.000001 0.000001 -0.000002 -0.124381 -2.384771 45.108861 4.500593 -4.654572 88.071143 0.000000 -0.000001 0.000001 -0.761629 -2.932897 39.031075 5.133885 -4.632745 95.881656 -0.000005 0.000000 -0.000001 0.154760 -4.068824 39.122695 6.509751 -4.273604 113.462891 0.000003 -0.000002 -0.000001 -4.198874 -8.025536 44.637766 4.252896 -4.639612 85.014825 -0.000001 0.000000 0.000001 0.000000 -0.000001 -0.000002 0.000002 0.000000 -0.000001 0.000002 0.000000 -0.000001 0.000002 0.000000 -0.000001 0.000002 0.000000 -0.000001 0.000002 0.000000 -0.000001 0.000002 0.000000 -0.000000 0.000002 0.000001 -0.000000 0.000002 0.000001 -0.000000 -0.000001 0.000000 -0.000000 -0.000000 0.000000 -0.000000 
3.160444 76.673996 -3.444043 155.202279 -92.899964 164.896107 -0.000000 0.000000 -0.000001 -8.998113 18.357559 14.011449 45.202277 8.871908 -5.361112 -23.288836 8.517761 -19.806225 0.000000 0.000000 0.000000 0.000002 -0.000001 0.000000 -0.000001 0.000003 -0.000001 -38.739180 10.295899 -19.456950 53.558058 -3.520539 -8.351959 -16.311759 12.674991 15.648235 -0.000000 -0.000000 0.000000 -0.000001 0.000000 -0.000000 0.000000 0.000000 -0.000000 25.512054 -10.335423 8.789879 21.901872 -3.506257 0.903637 21.899858 -3.536334 0.871496 5.510145 -0.303580 -3.526246 -19.806031 19.269323 -14.830555 -0.000002 0.000000 0.000000 -0.000002 0.000000 0.000000 -0.000002 0.000000 0.000000 -0.000002 0.000000 0.000000 -0.000002 0.000000 0.000000 -0.000002 0.000000 0.000000 -0.000002 0.000000 0.000000 -0.000002 0.000000 0.000000 -0.000002 0.000000 0.000000 -0.000002 0.000000 0.000000 -0.000002 0.000000 0.000000 -0.000002 0.000000 0.000000 -0.000002 0.000000 0.000000 -0.000002 0.000000 0.000000 -0.000002 0.000000 0.000000 -0.000002 0.000000 0.000000 -0.000002 0.000000 0.000000 -0.000002 0.000000 0.000000 -0.000002 0.000000 0.000000 -0.487523 -9.491398 9.564241 -0.653365 29.569788 -64.021084 -0.001291 -97.278676 -0.001305 -0.727235 -13.207227 -35.636748 -6.141221 -11.690800 -6.761693 9.914119 42.595508 3.409868 0.000003 0.000002 -0.000000 0.255312 3.378188 -45.814341 5.654069 5.847728 -88.067455 0.000002 -0.000002 -0.000003 -0.461470 3.841583 -39.722690 6.450737 5.820346 -95.892857 0.000004 0.000002 -0.000001 0.469723 4.966831 -39.799437 8.181090 5.368652 -113.503011 -0.000001 -0.000002 0.000004 -3.762437 9.063697 -45.253814 5.342512 5.828977 -85.005304 0.000002 -0.000000 0.000002 0.000002 0.000002 -0.000002 6.712787 21.856318 15.378784 -46.521552 39.994115 39.770050 -0.000034 111.959088 0.000033 -32.012434 6.164898 20.344914 -7.341093 13.749662 7.412350 9.855738 -44.489089 -3.903274 -0.000000 -0.000000 -0.000001 -0.124377 -2.384771 45.108857 4.500590 -4.654566 88.071143 0.000002 -0.000002 0.000001 -0.761625 -2.932898 39.031068 5.133881 -4.632752 95.881649 -0.000009 0.000002 0.000000 0.154762 -4.068825 39.122688 6.509749 -4.273603 113.462891 0.000003 -0.000000 -0.000003 -4.198870 -8.025537 44.637769 4.252894 -4.639601 85.014825 -0.000005 0.000000 0.000001 -0.000000 0.000000 0.000002 -0.000000 -0.000001 -0.000000 -0.000000 -0.000001 -0.000000 -0.000000 -0.000001 -0.000000 -0.000000 -0.000001 -0.000000 -0.000000 -0.000001 -0.000000 -0.000000 -0.000001 -0.000001 0.000002 -0.000001 -0.000001 0.000002 -0.000001 -0.000001 0.000000 0.000001 -0.000001 -0.000000 0.000000 -0.000001 
